<svg width="36" height="30" viewBox="0 0 36 30" fill="none" xmlns="http://www.w3.org/2000/svg">
<path d="M0 0.608836C1.91318 0.260488 4.56544 0 8.17349 0C12.0867 0 14.9561 0.825845 16.826 2.39087C18.565 3.82595 19.6957 6.12997 19.6957 8.86909C19.6957 11.6517 18.8264 13.9561 17.1742 15.5215C15.0438 17.6518 11.696 18.6519 7.9134 18.6519C6.91333 18.6519 6.00012 18.6085 5.30422 18.4778V29.5215H0V0.608836ZM5.30422 14.261C5.95674 14.4351 6.82646 14.4781 7.9134 14.4781C11.9131 14.4781 14.3477 12.5219 14.3477 9.08669C14.3477 5.82609 12.0867 4.08654 8.391 4.08654C6.91333 4.08654 5.86988 4.21729 5.30422 4.34793V14.261ZM20.8672 14.5216C20.8672 10.7824 23.9546 7.86912 28.8679 7.86912C31.2153 7.86912 33.2593 8.47796 34.476 9.13018L33.4329 12.9127C32.5197 12.3907 30.8237 11.6956 28.9548 11.6956C27.042 11.6956 25.9981 12.6088 25.9981 13.9122C25.9981 15.261 26.9981 15.9128 29.6938 16.8693C33.5198 18.2607 35.3018 20.2173 35.3462 23.3472C35.3462 27.1732 32.3461 30 26.7367 30C24.1717 30 21.8672 29.3474 20.3028 28.4781L21.3457 24.6086C22.5633 25.3481 24.8678 26.1298 26.781 26.1298C29.1289 26.1298 30.1714 25.1736 30.1714 23.7828C30.1714 22.3476 29.3024 21.6081 26.6941 20.6949C22.5633 19.2606 20.8243 16.9992 20.8672 14.5216Z" fill="white"/>
</svg>
