<svg width="26" height="26" viewBox="0 0 23 18" fill="none" xmlns="http://www.w3.org/2000/svg">
    <g>
        <path
            d="M13 0C15.3869 0 17.6761 0.948211 19.364 2.63604C21.0518 4.32387 22 6.61305 22 9C22 11.3869 21.0518 13.6761 19.364 15.364C17.6761 17.0518 15.3869 18 13 18C10.6131 18 8.32387 17.0518 6.63604 15.364C4.94821 13.6761 4 11.3869 4 9C4 6.61305 4.94821 4.32387 6.63604 2.63604C8.32387 0.948211 10.6131 0 13 0ZM13 0.947368C10.8643 0.947368 8.81609 1.79577 7.30593 3.30593C5.79577 4.81609 4.94737 6.86431 4.94737 9C4.94737 11.1357 5.79577 13.1839 7.30593 14.6941C8.81609 16.2042 10.8643 17.0526 13 17.0526C14.0575 17.0526 15.1046 16.8443 16.0816 16.4397C17.0586 16.035 17.9463 15.4418 18.6941 14.6941C19.4418 13.9463 20.035 13.0586 20.4397 12.0816C20.8443 11.1046 21.0526 10.0575 21.0526 9C21.0526 6.86431 20.2042 4.81609 18.6941 3.30593C17.1839 1.79577 15.1357 0.947368 13 0.947368ZM12.5263 3.78947H13.4737V8.92421L17.9263 11.4916L17.4526 12.3158L12.5263 9.47368V3.78947Z"
            fill="white" />
    </g>
</svg>
