<svg width="49" height="67" viewBox="0 0 49 67" fill="none" xmlns="http://www.w3.org/2000/svg">
<g filter="url(#filter0_d_167_156)">
<path d="M7 11.8375C7 9.49364 7.93109 7.24579 9.58844 5.58844C11.2458 3.93109 13.4936 3 15.8375 3H24.675V20.675H15.8375C13.4936 20.675 11.2458 19.7439 9.58844 18.0865C7.93109 16.4292 7 14.1813 7 11.8375Z" stroke="white" stroke-width="5" stroke-linecap="round" stroke-linejoin="round"/>
<path d="M24.675 3H33.5125C34.6732 3 35.8224 3.2286 36.8946 3.67271C37.9666 4.11685 38.9408 4.76779 39.7615 5.58844C40.5822 6.40909 41.2333 7.38331 41.6772 8.45553C42.1214 9.52775 42.35 10.6769 42.35 11.8375C42.35 12.9981 42.1214 14.1472 41.6772 15.2194C41.2333 16.2917 40.5822 17.2659 39.7615 18.0865C38.9408 18.9072 37.9666 19.5581 36.8946 20.0023C35.8224 20.4464 34.6732 20.675 33.5125 20.675H24.675V3Z" stroke="white" stroke-width="5" stroke-linecap="round" stroke-linejoin="round"/>
<path d="M24.675 29.5125C24.675 28.3519 24.9036 27.2027 25.3479 26.1304C25.7918 25.0584 26.4428 24.0843 27.2635 23.2635C28.0843 22.4428 29.0584 21.7919 30.1304 21.3478C31.2027 20.9036 32.3519 20.675 33.5125 20.675C34.6732 20.675 35.8224 20.9036 36.8946 21.3478C37.9666 21.7919 38.9408 22.4428 39.7615 23.2635C40.5822 24.0843 41.2333 25.0584 41.6772 26.1304C42.1214 27.2027 42.35 28.3519 42.35 29.5125C42.35 30.6732 42.1214 31.8224 41.6772 32.8946C41.2333 33.9666 40.5822 34.9408 39.7615 35.7615C38.9408 36.5822 37.9666 37.2333 36.8946 37.6772C35.8224 38.1214 34.6732 38.35 33.5125 38.35C32.3519 38.35 31.2027 38.1214 30.1304 37.6772C29.0584 37.2333 28.0843 36.5822 27.2635 35.7615C26.4428 34.9408 25.7918 33.9666 25.3479 32.8946C24.9036 31.8224 24.675 30.6732 24.675 29.5125Z" stroke="white" stroke-width="5" stroke-linecap="round" stroke-linejoin="round"/>
<path d="M7 47.1873C7 44.8436 7.93109 42.5957 9.58844 40.9384C11.2458 39.281 13.4936 38.3499 15.8375 38.3499H24.675V47.1873C24.675 49.531 23.7438 51.779 22.0865 53.4363C20.4292 55.0937 18.1813 56.0248 15.8375 56.0248C13.4936 56.0248 11.2458 55.0937 9.58844 53.4363C7.93109 51.779 7 49.531 7 47.1873Z" stroke="white" stroke-width="5" stroke-linecap="round" stroke-linejoin="round"/>
<path d="M7 29.5125C7 27.1688 7.93109 24.9209 9.58844 23.2635C11.2458 21.6061 13.4936 20.675 15.8375 20.675H24.675V38.35H15.8375C13.4936 38.35 11.2458 37.4188 9.58844 35.7615C7.93109 34.1042 7 31.8562 7 29.5125Z" stroke="white" stroke-width="5" stroke-linecap="round" stroke-linejoin="round"/>
</g>
<defs>
<filter id="filter0_d_167_156" x="0.5" y="0.5" width="48.3501" height="66.0249" filterUnits="userSpaceOnUse" color-interpolation-filters="sRGB">
<feFlood flood-opacity="0" result="BackgroundImageFix"/>
<feColorMatrix in="SourceAlpha" type="matrix" values="0 0 0 0 0 0 0 0 0 0 0 0 0 0 0 0 0 0 127 0" result="hardAlpha"/>
<feOffset dy="4"/>
<feGaussianBlur stdDeviation="2"/>
<feComposite in2="hardAlpha" operator="out"/>
<feColorMatrix type="matrix" values="0 0 0 0 0 0 0 0 0 0 0 0 0 0 0 0 0 0 0.25 0"/>
<feBlend mode="normal" in2="BackgroundImageFix" result="effect1_dropShadow_167_156"/>
<feBlend mode="normal" in="SourceGraphic" in2="effect1_dropShadow_167_156" result="shape"/>
</filter>
</defs>
</svg>
