<svg width="38" height="38" viewBox="0 0 38 38" fill="none" xmlns="http://www.w3.org/2000/svg">
<path d="M17.8687 0C17.8687 4.5 21.5625 8.15625 26.025 8.15625H29.3625V11.3438C29.3625 15.8438 33 19.4812 37.5 19.5V1.575C37.5 1.15728 37.3341 0.756677 37.0387 0.461307C36.7433 0.165937 36.3427 0 35.925 0H17.8687ZM8.94375 9C8.95361 11.1552 9.81412 13.2192 11.3381 14.7432C12.862 16.2671 14.9261 17.1276 17.0812 17.1375H20.4562V20.3625C20.4661 22.5177 21.3266 24.5817 22.8506 26.1057C24.3745 27.6296 26.4386 28.4901 28.5938 28.5V10.5563C28.5889 10.145 28.4234 9.752 28.1326 9.4612C27.8417 9.17039 27.4487 9.00487 27.0375 9H8.94375ZM0 18C0 22.5 3.65625 26.1375 8.15625 26.1375H11.4938V29.3625C11.5125 33.8438 15.15 37.5 19.6313 37.5V19.5563C19.6313 19.1385 19.4653 18.7379 19.1699 18.4426C18.8746 18.1472 18.474 17.9813 18.0562 17.9813L0 18Z" fill="white"/>
</svg>
