<svg width="36" height="38" viewBox="0 0 36 38" fill="none" xmlns="http://www.w3.org/2000/svg">
<path d="M6.208 6.57987C7.376 7.52787 7.812 7.45587 10.004 7.30987L30.668 6.06987C31.108 6.06987 30.742 5.62987 30.596 5.55787L27.164 3.07787C26.506 2.56787 25.63 1.98187 23.952 2.12787L3.942 3.58787C3.214 3.65987 3.068 4.02587 3.358 4.31787L6.208 6.57987ZM7.448 11.3959V33.1359C7.448 34.3059 8.032 34.7419 9.348 34.6699L32.056 33.3559C33.37 33.2839 33.516 32.4799 33.516 31.5299V9.93587C33.516 8.98787 33.152 8.47587 32.348 8.54987L8.616 9.93587C7.74 10.0079 7.448 10.4459 7.448 11.3959ZM29.868 12.5619C30.012 13.2179 29.868 13.8759 29.208 13.9499L28.114 14.1679V30.2179C27.164 30.7299 26.288 31.0199 25.558 31.0199C24.39 31.0199 24.098 30.6559 23.222 29.5619L16.064 18.3259V29.1979L18.33 29.7079C18.33 29.7079 18.33 31.0199 16.502 31.0199L11.464 31.3119C11.318 31.0199 11.464 30.2919 11.976 30.1459L13.29 29.7819V15.4079L11.464 15.2619C11.318 14.6039 11.684 13.6559 12.706 13.5819L18.11 13.2179L25.558 24.6019V14.5319L23.658 14.3139C23.514 13.5099 24.098 12.9279 24.828 12.8539L29.868 12.5619ZM2.262 1.61787L23.074 0.0858741C25.628 -0.134126 26.286 0.0138739 27.894 1.17987L34.536 5.84987C35.632 6.65187 35.998 6.86987 35.998 7.74587V33.3559C35.998 34.9619 35.414 35.9099 33.37 36.0559L9.2 37.5159C7.666 37.5879 6.936 37.3699 6.132 36.3479L1.24 29.9999C0.364 28.8319 0 27.9579 0 26.9339V4.16987C0 2.85787 0.582 1.76387 2.262 1.61787Z" fill="white"/>
</svg>
