<svg width="34" height="39" viewBox="0 0 34 39" fill="none" xmlns="http://www.w3.org/2000/svg">
<path d="M19.4286 0H24.2371C24.5869 1.74281 25.5486 3.94144 27.2364 6.123C28.8879 8.26069 31.0784 9.75 34 9.75V14.625C29.7427 14.625 26.5443 12.6409 24.2857 10.1668V26.8125C24.2857 29.223 23.5735 31.5793 22.2393 33.5835C20.905 35.5877 19.0085 37.1498 16.7897 38.0723C14.5709 38.9947 12.1294 39.2361 9.77391 38.7658C7.41842 38.2956 5.25477 37.1348 3.55657 35.4304C1.85836 33.7259 0.701862 31.5543 0.233327 29.1902C-0.235208 26.826 0.00526131 24.3755 0.924325 22.1485C1.84339 19.9216 3.39977 18.0181 5.39665 16.679C7.39353 15.3398 9.74123 14.625 12.1429 14.625V19.5C10.7019 19.5 9.29326 19.9289 8.09513 20.7324C6.89701 21.5359 5.96318 22.6779 5.41174 24.0141C4.8603 25.3503 4.71602 26.8206 4.99714 28.2391C5.27826 29.6576 5.97216 30.9605 6.99108 31.9832C8.01001 33.0059 9.3082 33.7023 10.7215 33.9845C12.1348 34.2666 13.5997 34.1218 14.931 33.5684C16.2623 33.0149 17.4001 32.0776 18.2007 30.8751C19.0013 29.6726 19.4286 28.2588 19.4286 26.8125V0Z" fill="white"/>
</svg>
