<svg width="36" height="32" viewBox="0 0 36 32" fill="none" xmlns="http://www.w3.org/2000/svg">
<path d="M9.90385 0.734003H17.1026L27.1443 31.6383H21.0922L18.2946 22.8803H8.48243L5.82271 31.6383H0L9.90385 0.734003ZM11.7836 11.0046L9.39965 18.6169H17.3324L14.9018 11.0046C14.306 9.12525 13.8014 7.01558 13.3434 5.22732H13.2513C12.7925 7.01558 12.3341 9.17058 11.7836 11.0046ZM29.0227 3.07222C29.0227 1.32981 30.3062 0 32.1861 0C34.1117 0 35.3041 1.32981 35.35 3.07222C35.35 4.76898 34.1117 6.09879 32.1402 6.09879C30.2605 6.09879 29.0227 4.76898 29.0227 3.07222ZM29.3431 31.6383V9.30846H35.0294V31.6383H29.3431Z" fill="white"/>
</svg>
